# xmcd
#
# Track frame offsets:
#	150
#	27768
#	55780
#	103247
#	149885
#	174747
#
# Disc length: 2774 seconds
#
# Revision: 1
# Processed by: cddbd v1.5.2PL0 Copyright (c) Steve Scherf et al.
# Submitted via: audiograbber 1.83.01
#
DISCID=560ad406
DTITLE=Grateful Dead - 78-10-20 Winterland Arena, San Francisco CA
DYEAR=1900
DGENRE=
TTITLE0=Space
TTITLE1=Not Fade Away
TTITLE2=Black Peter
TTITLE3=Around and Around
TTITLE4=Johnny B Goode
TTITLE5=Shakedown Street
EXTD=
EXTT0=
EXTT1=
EXTT2=
EXTT3=
EXTT4=
EXTT5=
PLAYORDER=
